<?xml version="1.0" encoding="UTF-8"?>
<svg xmlns="http://www.w3.org/2000/svg" xmlns:xlink="http://www.w3.org/1999/xlink" width="16px" height="16px" viewBox="0 0 16 16" version="1.1">
<g id="surface1">
<path style=" stroke:none;fill-rule:nonzero;fill:rgb(65.490196%,65.490196%,65.490196%);fill-opacity:1;" d="M 9.5 11.96875 C 9.5 13.226562 9.496094 14.476562 9.503906 15.734375 C 9.503906 15.871094 9.464844 15.910156 9.328125 15.90625 C 8.257812 15.898438 7.195312 15.898438 6.125 15.90625 C 5.976562 15.90625 5.929688 15.871094 5.929688 15.71875 C 5.9375 13.226562 5.933594 10.742188 5.933594 8.25 C 5.933594 8 5.960938 8.03125 5.707031 8.027344 C 5.253906 8.027344 4.800781 8.023438 4.347656 8.03125 C 4.238281 8.03125 4.207031 7.996094 4.207031 7.886719 C 4.210938 7.097656 4.210938 6.304688 4.207031 5.511719 C 4.207031 5.402344 4.238281 5.367188 4.347656 5.371094 C 4.820312 5.378906 5.292969 5.367188 5.769531 5.378906 C 5.898438 5.382812 5.9375 5.347656 5.9375 5.210938 C 5.929688 4.546875 5.9375 3.878906 5.933594 3.210938 C 5.929688 2.660156 6.015625 2.125 6.292969 1.636719 C 6.59375 1.105469 7.042969 0.742188 7.601562 0.503906 C 8.070312 0.304688 8.5625 0.210938 9.070312 0.179688 C 10.070312 0.125 11.078125 0.171875 12.082031 0.152344 C 12.195312 0.148438 12.222656 0.191406 12.222656 0.296875 C 12.21875 1.117188 12.21875 1.945312 12.222656 2.765625 C 12.222656 2.890625 12.175781 2.910156 12.066406 2.910156 C 11.488281 2.90625 10.910156 2.90625 10.332031 2.90625 C 9.851562 2.90625 9.503906 3.253906 9.503906 3.726562 C 9.503906 4.21875 9.507812 4.707031 9.5 5.195312 C 9.496094 5.335938 9.542969 5.371094 9.679688 5.371094 C 10.46875 5.367188 11.261719 5.371094 12.054688 5.367188 C 12.183594 5.367188 12.226562 5.402344 12.210938 5.535156 C 12.164062 5.9375 12.125 6.339844 12.082031 6.742188 C 12.039062 7.132812 11.972656 7.515625 11.910156 7.898438 C 11.890625 8.007812 11.855469 8.035156 11.757812 8.035156 C 11.078125 8.03125 10.402344 8.03125 9.726562 8.035156 C 9.460938 8.035156 9.496094 8 9.496094 8.269531 C 9.5 9.5 9.5 10.734375 9.5 11.96875 Z M 9.5 11.96875 "/>
</g>
</svg>
