<?xml version="1.0" encoding="UTF-8"?>
<svg xmlns="http://www.w3.org/2000/svg" xmlns:xlink="http://www.w3.org/1999/xlink" width="16px" height="16px" viewBox="0 0 16 16" version="1.1">
<g id="surface1">
<path style=" stroke:none;fill-rule:nonzero;fill:rgb(0%,0%,0%);fill-opacity:1;" d="M 15.933594 12.757812 L 15.855469 12.515625 C 15.664062 11.957031 15.046875 11.371094 14.476562 11.21875 L 12.375 10.644531 C 11.804688 10.488281 10.992188 10.695312 10.574219 11.113281 L 9.8125 11.875 C 7.046875 11.128906 4.878906 8.957031 4.132812 6.191406 L 4.894531 5.433594 C 5.3125 5.015625 5.519531 4.203125 5.363281 3.632812 L 4.792969 1.527344 C 4.636719 0.960938 4.050781 0.339844 3.492188 0.152344 L 3.25 0.0742188 C 2.691406 -0.113281 1.890625 0.0742188 1.472656 0.492188 L 0.335938 1.632812 C 0.128906 1.835938 0 2.414062 0 2.414062 C -0.0390625 6.03125 1.378906 9.511719 3.933594 12.066406 C 6.484375 14.617188 9.953125 16.035156 13.558594 16.003906 C 13.578125 16.003906 14.171875 15.875 14.375 15.671875 L 15.515625 14.535156 C 15.929688 14.117188 16.121094 13.316406 15.933594 12.757812 Z M 15.933594 12.757812 "/>
</g>
</svg>
