<?xml version="1.0" encoding="UTF-8"?>
<svg xmlns="http://www.w3.org/2000/svg" xmlns:xlink="http://www.w3.org/1999/xlink" width="16px" height="16px" viewBox="0 0 16 16" version="1.1">
<g id="surface1">
<path style=" stroke:none;fill-rule:nonzero;fill:rgb(65.490196%,65.490196%,65.490196%);fill-opacity:1;" d="M 0.109375 13.167969 C 1.859375 13.328125 3.425781 12.890625 4.84375 11.828125 C 4.625 11.777344 4.425781 11.777344 4.234375 11.730469 C 3.117188 11.464844 2.347656 10.792969 1.894531 9.746094 C 1.871094 9.695312 1.816406 9.628906 1.867188 9.574219 C 1.902344 9.535156 1.976562 9.570312 2.027344 9.574219 C 2.421875 9.617188 2.816406 9.601562 3.203125 9.511719 C 3.210938 9.445312 3.160156 9.449219 3.121094 9.4375 C 2.164062 9.179688 1.464844 8.609375 1.015625 7.726562 C 0.808594 7.320312 0.695312 6.894531 0.683594 6.4375 C 0.679688 6.257812 0.6875 6.257812 0.851562 6.335938 C 1.246094 6.523438 1.660156 6.628906 2.132812 6.648438 C 1.914062 6.476562 1.722656 6.320312 1.554688 6.136719 C 1.054688 5.578125 0.773438 4.925781 0.710938 4.171875 C 0.664062 3.558594 0.792969 2.988281 1.058594 2.4375 C 1.117188 2.316406 1.171875 2.324219 1.246094 2.414062 C 1.769531 3.054688 2.378906 3.59375 3.050781 4.0625 C 3.550781 4.414062 4.082031 4.703125 4.640625 4.949219 C 5.378906 5.273438 6.144531 5.488281 6.9375 5.617188 C 7.1875 5.65625 7.445312 5.664062 7.695312 5.691406 C 7.824219 5.703125 7.859375 5.664062 7.835938 5.535156 C 7.707031 4.859375 7.792969 4.203125 8.085938 3.585938 C 8.589844 2.539062 9.433594 1.898438 10.582031 1.730469 C 11.601562 1.582031 12.515625 1.871094 13.273438 2.585938 C 13.390625 2.695312 13.492188 2.726562 13.648438 2.683594 C 14.261719 2.527344 14.847656 2.304688 15.398438 1.992188 C 15.414062 1.984375 15.429688 1.980469 15.488281 1.960938 C 15.230469 2.710938 14.777344 3.269531 14.144531 3.695312 C 14.289062 3.722656 14.726562 3.644531 15.023438 3.550781 C 15.3125 3.460938 15.601562 3.378906 15.875 3.257812 C 15.914062 3.296875 15.878906 3.320312 15.863281 3.339844 C 15.496094 3.855469 15.078125 4.320312 14.578125 4.710938 C 14.507812 4.761719 14.445312 4.820312 14.371094 4.871094 C 14.320312 4.910156 14.316406 4.957031 14.320312 5.007812 C 14.339844 5.578125 14.300781 6.144531 14.21875 6.703125 C 14.132812 7.273438 13.992188 7.832031 13.800781 8.378906 C 13.644531 8.824219 13.460938 9.257812 13.242188 9.679688 C 12.699219 10.71875 11.996094 11.632812 11.117188 12.410156 C 10.183594 13.234375 9.121094 13.828125 7.933594 14.195312 C 7.195312 14.429688 6.433594 14.5625 5.65625 14.601562 C 5.054688 14.632812 4.460938 14.625 3.867188 14.550781 C 3.015625 14.445312 2.195312 14.214844 1.410156 13.878906 C 1.007812 13.707031 0.625 13.5 0.242188 13.285156 C 0.191406 13.261719 0.136719 13.238281 0.109375 13.167969 Z M 0.109375 13.167969 "/>
</g>
</svg>
