<?xml version="1.0" encoding="UTF-8"?>
<svg xmlns="http://www.w3.org/2000/svg" xmlns:xlink="http://www.w3.org/1999/xlink" width="16px" height="16px" viewBox="0 0 16 16" version="1.1">
<g id="surface1">
<path style=" stroke:none;fill-rule:nonzero;fill:rgb(65.490196%,65.490196%,65.490196%);fill-opacity:1;" d="M 8.011719 2.320312 C 8.722656 2.320312 9.429688 2.304688 10.136719 2.320312 C 11.039062 2.339844 11.9375 2.375 12.835938 2.414062 C 13.207031 2.433594 13.585938 2.445312 13.953125 2.515625 C 14.832031 2.683594 15.351562 3.226562 15.59375 4.078125 C 15.722656 4.53125 15.769531 4.996094 15.808594 5.460938 C 15.917969 6.714844 15.898438 7.96875 15.867188 9.222656 C 15.847656 9.960938 15.816406 10.710938 15.628906 11.433594 C 15.550781 11.730469 15.460938 12.027344 15.289062 12.289062 C 14.976562 12.757812 14.523438 13.027344 13.976562 13.128906 C 13.503906 13.214844 13.023438 13.226562 12.546875 13.246094 C 11.664062 13.289062 10.777344 13.304688 9.894531 13.328125 C 8.847656 13.355469 7.800781 13.351562 6.757812 13.339844 C 5.910156 13.332031 5.058594 13.3125 4.210938 13.277344 C 3.496094 13.25 2.777344 13.238281 2.070312 13.101562 C 1.679688 13.023438 1.335938 12.863281 1.035156 12.59375 C 0.753906 12.335938 0.609375 12.007812 0.503906 11.65625 C 0.273438 10.90625 0.257812 10.132812 0.210938 9.355469 C 0.160156 8.449219 0.175781 7.542969 0.195312 6.640625 C 0.214844 5.878906 0.25 5.113281 0.410156 4.363281 C 0.503906 3.917969 0.632812 3.476562 0.953125 3.136719 C 1.351562 2.71875 1.855469 2.519531 2.429688 2.476562 C 3.113281 2.429688 3.800781 2.398438 4.484375 2.371094 C 5.660156 2.320312 6.835938 2.304688 8.011719 2.320312 Z M 10.609375 7.667969 C 10.597656 7.632812 10.5625 7.625 10.539062 7.613281 C 9.804688 7.226562 9.066406 6.835938 8.328125 6.449219 C 7.742188 6.144531 7.160156 5.835938 6.574219 5.523438 C 6.414062 5.441406 6.410156 5.445312 6.410156 5.632812 C 6.410156 6.976562 6.410156 8.324219 6.410156 9.675781 C 6.410156 9.699219 6.410156 9.726562 6.410156 9.753906 C 6.40625 9.835938 6.4375 9.859375 6.511719 9.820312 C 6.601562 9.769531 6.695312 9.71875 6.789062 9.667969 C 8.019531 9.03125 9.253906 8.390625 10.484375 7.753906 C 10.527344 7.726562 10.585938 7.71875 10.609375 7.667969 Z M 10.609375 7.667969 "/>
</g>
</svg>
